HIERARCHY
ROOT reference
{
  OFFSET 0 0 0
  CHANNELS 6 Xposition Yposition Zposition Zrotation Xrotation Yrotation
  JOINT Hips
  {
    OFFSET -18.5823 70.5434 48.0736
    CHANNELS 6 Xposition Yposition Zposition Zrotation Xrotation Yrotation
    JOINT Spine
    {
      OFFSET 0 8.12958 0
      CHANNELS 6 Xposition Yposition Zposition Zrotation Xrotation Yrotation
      JOINT Spine1
      {
        OFFSET 0 26.3907 0
        CHANNELS 6 Xposition Yposition Zposition Zrotation Xrotation Yrotation
        JOINT Neck
        {
          OFFSET 0 26.2823 2.3893
          CHANNELS 6 Xposition Yposition Zposition Zrotation Xrotation Yrotation
          JOINT Head
          {
            OFFSET 0 13.8798 -1.98282
            CHANNELS 6 Xposition Yposition Zposition Zrotation Xrotation Yrotation
            End Site
            {
              OFFSET 0 24.7853 0
            }
          }
        }
        JOINT LeftShoulder
        {
          OFFSET 3.97789 23.5745 -0.27352
          CHANNELS 6 Xposition Yposition Zposition Zrotation Xrotation Yrotation
          JOINT LeftArm
          {
            OFFSET 13.7626 0 0
            CHANNELS 6 Xposition Yposition Zposition Zrotation Xrotation Yrotation
            JOINT LeftForeArm
            {
              OFFSET 26.1014 0 0
              CHANNELS 6 Xposition Yposition Zposition Zrotation Xrotation Yrotation
              JOINT LeftHand
              {
                OFFSET 29.9599 0 0
                CHANNELS 6 Xposition Yposition Zposition Zrotation Xrotation Yrotation
                End Site
                {
                  OFFSET 14.8712 0 0
                }
              }
            }
          }
        }
        JOINT RightShoulder
        {
          OFFSET -3.9517 23.5745 -0.27352
          CHANNELS 6 Xposition Yposition Zposition Zrotation Xrotation Yrotation
          JOINT RightArm
          {
            OFFSET -13.7626 0 0
            CHANNELS 6 Xposition Yposition Zposition Zrotation Xrotation Yrotation
            JOINT RightForeArm
            {
              OFFSET -26.1014 0 0
              CHANNELS 6 Xposition Yposition Zposition Zrotation Xrotation Yrotation
              JOINT RightHand
              {
                OFFSET -29.9599 0 0
                CHANNELS 6 Xposition Yposition Zposition Zrotation Xrotation Yrotation
                End Site
                {
                  OFFSET -14.8712 0 0
                }
              }
            }
          }
        }
      }
    }
    JOINT LeftUpLeg
    {
      OFFSET 9.91412 0 0
      CHANNELS 6 Xposition Yposition Zposition Zrotation Xrotation Yrotation
      JOINT LeftLeg
      {
        OFFSET 0 -41.4279 0
        CHANNELS 6 Xposition Yposition Zposition Zrotation Xrotation Yrotation
        JOINT LeftFoot
        {
          OFFSET 0 -41.0254 0
          CHANNELS 6 Xposition Yposition Zposition Zrotation Xrotation Yrotation
          JOINT LeftToeBase
          {
            OFFSET 0 -6.44418 14.8712
            CHANNELS 6 Xposition Yposition Zposition Zrotation Xrotation Yrotation
            End Site
            {
              OFFSET 0 0 3.96565
            }
          }
        }
      }
    }
    JOINT RightUpLeg
    {
      OFFSET -9.91412 0 0
      CHANNELS 6 Xposition Yposition Zposition Zrotation Xrotation Yrotation
      JOINT RightLeg
      {
        OFFSET 0 -41.4279 0
        CHANNELS 6 Xposition Yposition Zposition Zrotation Xrotation Yrotation
        JOINT RightFoot
        {
          OFFSET 0 -41.0254 0
          CHANNELS 6 Xposition Yposition Zposition Zrotation Xrotation Yrotation
          JOINT RightToeBase
          {
            OFFSET 0 -6.44418 14.8712
            CHANNELS 6 Xposition Yposition Zposition Zrotation Xrotation Yrotation
            End Site
            {
              OFFSET 0 0 3.96565
            }
          }
        }
      }
    }
  }
}
MOTION
Frames:	7
Frame Time:	0.004
0 0 0 0 0 -0 -22.4444 83.4421 -208.353 0.888455 -2.44638 5.1651 0 8.12958 0 -0.465059 2.17888 -2.59926 1.77636e-015 26.3907 0 -1.30145 -5.99965 -2.67909 3.55271e-015 26.2823 2.3893 0.429264 8.43214 -4.31213 0 13.8798 -1.98282 3.63945 -3.05619 -3.90725 3.97789 23.5745 -0.27352 11.29 1.18392 -0.781639 13.7626 2.84217e-014 0 -16.3562 3.39868 1.25526 26.1014 2.84217e-014 0 1.64902 0.526639 -0.470054 29.9599 -2.84217e-014 -2.84217e-014 6.25643 0.720549 3.42049 -3.9517 23.5745 -0.27352 -9.00664 1.19163 2.38179 -13.7626 2.84217e-014 0 12.9634 7.92697 -4.63464 -26.1014 0 0 -4.4155 0.00357601 0.665255 -29.9599 0 0 -5.22936 -0.115226 3.21141 9.91412 0 0 -1.364 6.73002 -1.21508 -1.77636e-015 -41.4279 2.84217e-014 0.889824 -4.76546 3.21112 0 -41.0254 0 0.219977 -0.895977 3.48407 7.10543e-015 -6.44418 14.8712 4.96962e-017 -3.97569e-016 1.59028e-015 -9.91412 -1.42109e-014 2.84217e-014 1.17407 5.85639 2.97619 7.10543e-015 -41.4279 2.84217e-014 -0.0711297 -0.698387 4.83036 7.10543e-015 -41.0254 -2.84217e-014 -2.2164 -4.8144 -15.9385 -7.10543e-015 -6.44418 14.8712 -4.96962e-017 -3.97569e-016 -0 
0 0 0 0 0 -0 -22.4444 83.4421 -208.353 0.888455 -2.44638 5.1651 0 8.12958 0 -0.465059 2.17888 -2.59926 1.77636e-015 26.3907 0 -1.30145 -5.99965 -2.67909 3.55271e-015 26.2823 2.3893 0.430116 8.44332 -4.31226 0 13.8798 -1.98282 3.624 -3.08007 -3.90734 3.97789 23.5745 -0.27352 11.2899 1.19309 -0.769652 13.7626 0 0 -16.3542 3.35693 1.23772 26.1014 2.84217e-014 0 1.64899 0.523551 -0.470054 29.9599 2.84217e-014 0 6.2784 0.717529 3.42049 -3.9517 23.5745 -0.27352 -9.00625 1.18225 2.38178 -13.7626 -2.84217e-014 0 12.9623 7.91309 -4.63448 -26.1014 -2.84217e-014 0 -4.41619 0.0625301 0.665256 -29.9599 2.84217e-014 0 -5.21751 -0.059433 3.24306 9.91412 0 0 -1.364 6.73002 -1.21508 -1.77636e-015 -41.4279 2.84217e-014 0.887799 -4.76558 3.18675 0 -41.0254 0 0.228071 -0.910301 3.50952 -3.55271e-015 -6.44418 14.8712 -4.96962e-017 0 1.59028e-015 -9.91412 -1.42109e-014 2.84217e-014 1.17407 5.85639 2.97619 7.10543e-015 -41.4279 2.84217e-014 -0.0711297 -0.698387 4.83036 7.10543e-015 -41.0254 -2.84217e-014 -2.18664 -4.81467 -15.9272 7.10543e-015 -6.44418 14.8712 -7.45443e-017 -3.97569e-016 -0 
0 0 0 0 0 -0 -22.4444 83.4421 -208.353 0.888455 -2.44638 5.1651 0 8.12958 0 -0.464767 2.18319 -2.60179 -3.55271e-015 26.3907 5.68434e-014 -1.30145 -5.99965 -2.67909 0 26.2823 2.3893 0.428253 8.44479 -4.31228 -7.10543e-015 13.8798 -1.98282 3.63771 -3.06585 -3.90729 3.97789 23.5745 -0.27352 11.2897 1.17496 -0.772602 13.7626 -2.84217e-014 -2.84217e-014 -16.3646 3.37832 1.24941 26.1014 0 0 1.64888 0.510546 -0.470053 29.9599 2.84217e-014 0 6.25538 0.703931 3.42048 -3.9517 23.5745 -0.27352 -9.00652 1.18885 2.38179 -13.7626 2.84217e-014 2.84217e-014 12.9612 7.90031 -4.63385 -26.1014 0 0 -4.41662 0.0991801 0.665256 -29.9599 0 0 -5.21093 -0.022901 3.24894 9.91412 0 0 -1.364 6.73002 -1.21508 -1.77636e-015 -41.4279 2.84217e-014 0.887108 -4.76561 3.17843 0 -41.0254 0 0.236998 -0.908136 3.51225 3.55271e-015 -6.44418 14.8712 4.96962e-017 -1.98785e-016 -0 -9.91412 -1.42109e-014 2.84217e-014 1.17305 5.85669 2.98605 3.55271e-015 -41.4279 0 -0.0709482 -0.701533 4.82352 -3.55271e-015 -41.0254 0 -2.21251 -4.81452 -15.9335 -7.10543e-015 -6.44418 14.8712 2.48481e-017 0 -0 
0 0 0 0 0 -0 -22.4444 83.4421 -208.353 0.889338 -2.45615 5.16514 0 8.12958 -2.84217e-014 -0.464111 2.19641 -2.60324 -1.77636e-015 26.3907 -2.84217e-014 -1.30138 -5.99965 -2.67841 3.55271e-015 26.2823 2.3893 0.40971 8.46409 -4.31612 0 13.8798 -1.98282 3.66961 -3.07258 -3.90731 3.97789 23.5745 -0.27352 11.2901 1.19675 -0.779316 13.7626 2.84217e-014 -2.84217e-014 -16.3625 3.37439 1.24786 26.1014 0 0 1.64869 0.494688 -0.462256 29.9599 -2.84217e-014 0 6.25145 0.688354 3.42047 -3.9517 23.5745 -0.27352 -9.0073 1.20855 2.3799 -13.7626 0 -2.84217e-014 12.9589 7.86379 -4.63891 -26.1014 -2.84217e-014 0 -4.40768 0.124354 0.665257 -29.9599 1.42109e-014 0 -5.22723 0.002327 3.2514 9.91412 1.42109e-014 -2.84217e-014 -1.364 6.73002 -1.21508 0 -41.4279 2.84217e-014 0.888457 -4.76554 3.19467 1.77636e-015 -41.0254 0 0.22763 -0.910669 3.48709 0 -6.44418 14.8712 -9.93923e-017 -5.96354e-016 -1.59028e-015 -9.91412 0 0 1.17184 5.87247 2.99116 -3.55271e-015 -41.4279 2.84217e-014 -0.070364 -0.711187 4.80509 0 -41.0254 0 -2.21563 -4.81499 -15.9136 0 -6.44418 14.8712 2.48481e-017 3.97569e-016 -0 
0 0 0 0 0 -0 -22.4444 83.4421 -208.353 0.888366 -2.4454 5.1651 0 8.12958 2.84217e-014 -0.464516 2.18635 -2.60461 -1.77636e-015 26.3907 0 -1.30126 -5.99387 -2.67979 3.55271e-015 26.2823 2.3893 0.420748 8.45139 -4.31907 0 13.8798 -1.98282 3.66017 -3.05681 -3.90725 3.97789 23.5745 -0.27352 11.2898 1.18289 -0.772613 13.7626 0 0 -16.3647 3.41415 1.24445 26.1014 0 0 1.6489 0.475195 -0.454893 29.9599 0 0 6.25077 0.668377 3.41703 -3.9517 23.5745 -0.27352 -9.00617 1.18559 2.37153 -13.7626 -2.84217e-014 0 12.9615 7.88802 -4.64335 -26.1014 2.84217e-014 2.84217e-014 -4.40515 0.126105 0.665257 -29.9599 -1.42109e-014 0 -5.29059 0.002936 3.22714 9.91412 0 0 -1.36307 6.71773 -1.22519 0 -41.4279 -2.84217e-014 0.888936 -4.76343 3.20184 0 -41.0254 0 0.225541 -0.911792 3.49225 3.55271e-015 -6.44418 14.8712 9.93923e-017 1.98785e-016 -3.18055e-015 -9.91412 -2.84217e-014 0 1.17348 5.85829 2.98326 -3.55271e-015 -41.4279 2.84217e-014 -0.0704323 -0.70885 4.81538 -3.55271e-015 -41.0254 0 -2.19523 -4.81469 -15.9261 0 -6.44418 14.8712 4.96962e-017 7.95139e-016 3.97569e-016 
0 0 0 0 0 -0 -22.4444 83.4421 -208.353 0.888133 -2.44282 5.16509 -3.55271e-015 8.12958 0 -0.46439 2.18798 -2.60598 1.77636e-015 26.3907 0 -1.30176 -6.00099 -2.68139 0 26.2823 2.3893 0.419813 8.47274 -4.3223 0 13.8798 -1.98282 3.66643 -3.07819 -3.90875 3.97789 23.5745 -0.27352 11.2898 1.18716 -0.771461 13.7626 2.84217e-014 2.84217e-014 -16.3666 3.40665 1.2446 26.1014 2.84217e-014 2.84217e-014 1.64944 0.477238 -0.45201 29.9599 -2.84217e-014 0 6.23082 0.670065 3.41937 -3.9517 23.5745 -0.27352 -9.00805 1.18809 2.36393 -13.7626 2.84217e-014 0 12.9467 7.84063 -4.63455 -26.1014 2.84217e-014 0 -4.38324 0.160627 0.665258 -29.9599 0 0 -5.31059 0.036287 3.22891 9.91412 1.42109e-014 0 -1.36371 6.72184 -1.21901 0 -41.4279 -2.84217e-014 0.889255 -4.77966 3.19482 0 -41.0254 0 0.227582 -0.901349 3.48471 0 -6.44418 14.8712 9.93923e-017 0 -3.18055e-015 -9.91412 0 0 1.17299 5.85743 2.9892 0 -41.4279 -2.84217e-014 -0.0705588 -0.70828 4.80907 -3.55271e-015 -41.0254 -2.84217e-014 -2.20451 -4.81788 -15.9318 0 -6.44418 14.8712 -7.45443e-017 0 -3.97569e-016 
0 0 0 0 0 -0 -22.4444 83.4421 -208.353 0.888979 -2.45218 5.16512 0 8.12958 0 -0.464092 2.20086 -2.60733 0 26.3907 0 -1.30254 -6.01404 -2.68311 -3.55271e-015 26.2823 2.3893 0.41258 8.48702 -4.32545 0 13.8798 -1.98282 3.6823 -3.0543 -3.91065 3.97789 23.5745 -0.27352 11.2901 1.1862 -0.784811 13.7626 0 0 -16.3682 3.39762 1.26113 26.1014 2.84217e-014 0 1.65004 0.484237 -0.447952 29.9599 0 0 6.1906 0.676502 3.43325 -3.9517 23.5745 -0.27352 -9.01022 1.18798 2.37288 -13.7626 0 -2.84217e-014 12.9578 7.8724 -4.65987 -26.1014 0 0 -4.38859 0.137946 0.67255 -29.9599 -1.42109e-014 0 -5.31266 0.014286 3.21958 9.91412 0 0 -1.3635 6.73589 -1.21829 0 -41.4279 0 0.891615 -4.78492 3.21953 1.77636e-015 -41.0254 0 0.231644 -0.900375 3.48411 -3.55271e-015 -6.44418 14.8712 1.10348e-032 3.97569e-016 -1.59028e-015 -9.91412 -1.42109e-014 0 1.17093 5.87496 3.00106 0 -41.4279 0 -0.0692418 -0.722435 4.81901 3.55271e-015 -41.0254 0 -2.19817 -4.80101 -15.9448 0 -6.44418 14.8712 9.93923e-017 -7.95139e-016 -3.97569e-016 
